<?xml version="1.0" encoding="UTF-8" standalone="no"?>
<!-- Created with Inkscape (http://www.inkscape.org/) -->

<svg
   width="512"
   height="512"
   viewBox="0 0 135.46667 135.46667"
   version="1.1"
   id="svg5"
   sodipodi:docname="mathlogo.svg"
   inkscape:version="1.2.2 (b0a8486541, 2022-12-01)"
   xmlns:inkscape="http://www.inkscape.org/namespaces/inkscape"
   xmlns:sodipodi="http://sodipodi.sourceforge.net/DTD/sodipodi-0.dtd"
   xmlns="http://www.w3.org/2000/svg"
   xmlns:svg="http://www.w3.org/2000/svg">
  <sodipodi:namedview
     id="namedview7"
     pagecolor="#ffffff"
     bordercolor="#000000"
     borderopacity="0.25"
     inkscape:showpageshadow="false"
     inkscape:pageopacity="0.0"
     inkscape:pagecheckerboard="true"
     inkscape:deskcolor="#d1d1d1"
     inkscape:document-units="px"
     showgrid="false"
     showborder="true"
     borderlayer="true"
     shape-rendering="auto"
     inkscape:zoom="1"
     inkscape:cx="-31.5"
     inkscape:cy="214"
     inkscape:window-width="1920"
     inkscape:window-height="1018"
     inkscape:window-x="0"
     inkscape:window-y="30"
     inkscape:window-maximized="1"
     inkscape:current-layer="layer1" />
  <defs
     id="defs2" />
  <g
     inkscape:label="Capa 1"
     inkscape:groupmode="layer"
     id="layer1">
    <rect
       style="fill:#1d283a;fill-opacity:1;stroke:none;stroke-width:0;stroke-dasharray:none;paint-order:stroke fill markers"
       id="rect40081"
       width="135.46667"
       height="135.46667"
       x="-2.4023439e-06"
       y="-2.4023439e-06"
       rx="26.458334"
       ry="26.458334" />
    <path
       style="fill:#fafbff;fill-opacity:1;stroke:none;stroke-width:0;stroke-dasharray:none;paint-order:stroke fill markers"
       id="path41269"
       d="m 39.00255,115.58315 c 0.553437,0.73576 1.071925,1.4969 1.611927,2.24276 0.836774,1.19994 1.853507,2.23725 2.960346,3.18457 1.854504,1.40171 4.026165,2.08932 6.354167,1.99089 0.530347,-0.0224 1.05052,-0.15324 1.575782,-0.22986 1.861545,-0.46558 3.611187,-1.35725 5.058749,-2.62462 0.336883,-0.29495 0.654134,-0.61159 0.981202,-0.91739 1.045488,-1.00417 1.949611,-2.13921 2.817222,-3.29662 1.055489,-1.4124 1.82271,-3.00048 2.576873,-4.58536 0.852842,-1.68266 1.55044,-3.43498 2.205664,-5.20188 0.736524,-2.01923 1.326309,-4.08705 1.911337,-6.153918 0.685046,-2.305084 1.206865,-4.653431 1.729129,-6.99934 0.498721,-2.281034 1.004057,-4.559779 1.603698,-6.81653 0.709493,-2.58191 1.313116,-5.191633 1.91607,-7.800049 0.658881,-3.066328 1.056934,-6.1781 1.5382,-9.274763 0.450837,-2.792322 0.870106,-5.589508 1.322081,-8.381725 0.440693,-2.683883 0.934953,-5.358339 1.503085,-8.018145 0.458954,-1.987111 0.886507,-3.981566 1.384704,-5.959393 0.463617,-1.670666 0.982097,-3.324445 1.435865,-4.997961 0.555181,-1.67935 1.078066,-3.368736 1.619507,-5.052568 0.626996,-1.99898 1.131178,-4.033716 1.680982,-6.054908 0.165886,-0.545959 0.319834,-1.095102 0.526439,-1.62747 0.0269,-0.0693 -0.106894,0.147685 -0.06947,0.211915 0.03422,0.05873 0.05663,-0.123576 0.08494,-0.185364 -0.532423,1.262957 -1.563446,2.200396 -2.733934,2.862244 0.265131,0.06203 -1.003575,0.270121 -0.739727,0.285385 0.07046,0.0041 0.820801,-0.181356 1.045281,-0.20288 0.05671,-0.0043 0.499602,-0.03858 0.523447,-0.03639 0.06766,0.0062 -0.141471,-0.0034 -0.201967,0.02752 -0.0356,0.0182 0.158009,0.0061 0.119001,0.0149 -0.07381,0.01656 -0.332584,-0.01233 -0.397671,-0.01802 -0.787353,-0.110247 -1.400181,-0.571281 -1.97625,-1.091243 -0.04239,-0.04139 -0.145703,-0.180448 -0.127161,-0.124177 0.03108,0.0943 0.114697,0.162232 0.167425,0.246365 0.08395,0.133942 0.156459,0.274788 0.239178,0.409493 5.87501,9.565148 19.402172,1.256628 13.527162,-8.30852 v 0 c -0.5676,-0.923904 -1.149138,-1.839605 -1.852554,-2.669039 -0.321146,-0.339751 -0.620358,-0.70167 -0.963443,-1.019255 -1.536237,-1.422055 -3.405672,-2.377576 -5.422554,-2.906955 -0.379971,-0.07809 -0.757023,-0.172057 -1.139915,-0.234259 -1.517462,-0.246514 -3.06511,-0.216088 -4.586549,-0.02698 -1.596176,0.225034 -3.190116,0.538521 -4.686044,1.158399 -0.395766,0.199381 -0.799444,0.383783 -1.187299,0.598143 -1.811319,1.001078 -3.180413,2.621023 -4.059754,4.468937 -0.585104,1.293453 -1.033256,2.637733 -1.408557,4.006264 -0.484616,1.787522 -0.934352,3.585496 -1.474131,5.356987 -0.617,1.91942 -1.225666,3.841282 -1.830165,5.76453 -0.477023,1.766856 -1.043562,3.50729 -1.508805,5.277551 -0.542438,2.164551 -1.017545,4.344887 -1.514782,6.52009 -0.619453,2.916058 -1.166932,5.846401 -1.647391,8.788673 -0.457229,2.82583 -0.881785,5.65662 -1.338062,8.482521 -0.421079,2.715067 -0.771456,5.442273 -1.318606,8.136284 -0.564269,2.443311 -1.127858,4.888257 -1.793624,7.30631 -0.651484,2.46274 -1.213808,4.946198 -1.754545,7.435491 -0.456787,2.053278 -0.906039,4.110643 -1.508953,6.127284 -0.471265,1.667516 -0.93976,3.337888 -1.525611,4.969706 -0.487008,1.32271 -1.004409,2.63452 -1.651987,3.88872 -0.307576,0.64716 -0.59127,1.31171 -0.971934,1.92038 -0.407646,0.55464 -0.822894,1.10784 -1.33178,1.57497 0.103772,-0.0817 0.205115,-0.16654 0.311316,-0.24504 0.01775,-0.0131 -0.06727,0.0482 -0.04521,0.0483 0.141497,7.9e-4 1.506659,-0.79552 1.635273,-0.58388 0.320916,-0.0331 0.640131,-0.10038 0.962753,-0.0994 1.587243,0.005 3.050461,0.43586 4.294233,1.44164 0.123936,0.11423 0.251486,0.22466 0.371805,0.34269 0.05362,0.0526 0.200692,0.22358 0.149453,0.16865 -0.09929,-0.10644 -0.187124,-0.224 -0.293637,-0.32321 -0.04842,-0.0451 0.170113,0.20039 0.118001,0.15962 -0.03242,-0.0254 -0.334695,-0.42512 -0.336042,-0.42688 -0.737412,-1.015 -1.435685,-2.05882 -2.22545,-3.03506 -7.149444,-8.654094 -19.388178,1.45675 -12.238734,10.11084 z" />
  </g>
</svg>
